<svg class="custom-box" xmlns="http://www.w3.org/2000/svg" width="29" height="27" viewBox="-0.5 0.5 29 27">

    <!-- обводка -->
    <path class="outline" d="M4.141 0.499l17.717 0c2.553,0 4.642,2.089 4.642,4.642l0 17.717c0,2.554 -2.089,4.642 -4.642,4.642l-17.717 0c-2.553,0 -4.641,-2.088 -4.641,-4.642l0 -17.717c0,-2.553 2.088,-4.642 4.641,-4.642zm17.358 2.001l-16.999 0c-1.65,0 -3,1.35 -3,3l0 16.999c0,1.65 1.35,3 3,3l16.999 0c1.65,0 3,-1.35 3,-3l0 -16.999c0,-1.65 -1.35,-3 -3,-3l0 0z"/>

    <!-- галочка -->
    <polygon class="assambled component-checkmark" points="8.779,9.986 5.953,12.815 13.729,20.598 27.648,6.666 24.823,3.837 13.729,14.939 "/>

    <!-- квадратик залитый -->
    <path class="closedbox" d="M21.5 4.5c0.542,0 1,0.458 1,1l0 17c0,0.542 -0.458,1 -1,1l-17 0c-0.542,0 -1.001,-0.459 -1.001,-1.001l0.001 -16.999c0,-0.542 0.458,-1 1,-1l17 0 0 0zm0 -2l-17 0c-1.65,0 -3,1.35 -3,3l0 16.999c0,1.651 1.35,3.001 3,3.001l17 0c1.65,0 3,-1.35 3,-3.001l0 -16.999c0,-1.65 -1.351,-3.001 -3.001,-3.001l0.001 0.001z"/>

    <!-- квадратик с разрывом -->
    <path class="assambled component-tornbox" d="M22.482 22.5c0,0.542 -0.458,1 -0.999,1l-16.985 0c-0.542,0 -0.999,-0.458 -0.999,-1l0 -17c0,-0.542 0.457,-1 0.999,-1l16.893 0 1.584 -1.585c-0.452,-0.268 -0.967,-0.412 -1.492,-0.415l-16.985 0c-1.649,0 -2.998,1.35 -2.998,3l0 17c0,1.65 1.349,3 2.998,3l16.985 0c1.649,0 2.998,-1.35 2.998,-3l0 -9.829 -1.999 2 0 7.829z"/>
</svg>